# xmcd CD database file
#
# Track frame offsets:
#	150
#	17250
#	30389
#	43816
#	64765
#	76869
#	89019
#	103513
#	106392
#	119292
#	132964
#	147734
#	159734
#
# Disc length: 2318 seconds
#
# Revision: 0
# Processed by: cddbd v1.5.1PL2 Copyright (c) Steve Scherf et al.
# Submitted via: CDex 1.51
#
DISCID=aa090c0d
DTITLE=Michael Reno Harrell - There Are No Angels Here
DYEAR=1995
DGENRE=Country
TTITLE0=There Are No Angels Here
TTITLE1=Living In The Country
TTITLE2=Southern Accent
TTITLE3=Billy and Ruby Jane
TTITLE4=Remember The Ride
TTITLE5=You Dont Give Back
TTITLE6=Its A Long, Long Way
TTITLE7=Ashokens Farewell
TTITLE8=Home To Dixie
TTITLE9=One O'Clock In The Morning
TTITLE10=Cerillos Lullaby
TTITLE11=Love Songs In Blue
TTITLE12=Blow Away
EXTD=YEAR: 1995
EXTT0=
EXTT1=
EXTT2=
EXTT3=
EXTT4=
EXTT5=
EXTT6=
EXTT7=
EXTT8=
EXTT9=
EXTT10=
EXTT11=
EXTT12=
PLAYORDER=
